# xmcd
#
# Track frame offsets: 
#        150
#        15089
#        29130
#        41609
#        56278
#        64214
#        78062
#        94000
#        105518
#        120553
#        141568
#        150783
#        166965
#        185666
#        198429
#        211426
#        225794
#        241454
#        258772
#        272289
#
# Disc length: 3886 seconds
#
# Revision: 0
# Processed by: cddbd v1.5.2PL0 Copyright (c) Steve Scherf et al.
# Submitted via: ExactAudioCopyFreeDBPlugin 1.0
#
DISCID=f70f2c14
DTITLE=Various Artist - Vive Le Tour [CD3]
DYEAR=2013
DGENRE=Chanson
TTITLE0=Gérard Lenorman - La Ballade Des Gens Heureux
TTITLE1=Jacques Brel - Le Moribond
TTITLE2=Michel Delpech - Le Loir Et Cher
TTITLE3=Amina - Le Dernier Qui A Parlé
TTITLE4=Les Chats Sauvages - Twist À Saint-Tropez
TTITLE5=Lou and The Hollywood Bananas - Kingston Kingston
TTITLE6=Leopold Nord Et Vous - C'est L'amour
TTITLE7=Sheila - L'école Est Finie
TTITLE8=Philippe Swan - Dans Ma Rue
TTITLE9=Stephanie - Ouragan
TTITLE10=Marc Aryan - Katy
TTITLE11=Hervé Vilard - Capri C'est Fini
TTITLE12=Serge Lama - Je Suis Malade
TTITLE13=Serge Reggiani - Votre Fille A 20 Ans
TTITLE14=Jacques Dutronc - Et Moi Et Moi Et Moi
TTITLE15=Claude François - Cette Année Là
TTITLE16=Joe Dassin - Et Si Tu N'existais Pas
TTITLE17=Billy Ze Kick - Mangez-Moi
TTITLE18=Plastic Bertrand - Ca Plane Pour Moi
TTITLE19=Serge Gainsbourg and Brigitte Bardot - Bonnie And Clyde
EXTD=
EXTT0=
EXTT1=
EXTT2=
EXTT3=
EXTT4=
EXTT5=
EXTT6=
EXTT7=
EXTT8=
EXTT9=
EXTT10=
EXTT11=
EXTT12=
EXTT13=
EXTT14=
EXTT15=
EXTT16=
EXTT17=
EXTT18=
EXTT19=
PLAYORDER=
